<?xml version="1.0" standalone="no"?>
<!DOCTYPE svg PUBLIC "-//W3C//DTD SVG 20010904//EN"
 "http://www.w3.org/TR/2001/REC-SVG-20010904/DTD/svg10.dtd">
<svg version="1.0" xmlns="http://www.w3.org/2000/svg"
 width="728.000000pt" height="290.000000pt" viewBox="0 0 728.000000 290.000000"
 preserveAspectRatio="xMidYMid meet">

<g transform="translate(0.000000,290.000000) scale(0.100000,-0.100000)"
fill="#A1887F" stroke="none">
<path d="M4170 2105 c-191 -54 -287 -157 -298 -319 -12 -193 79 -299 353 -406
230 -90 259 -104 301 -145 33 -32 44 -50 49 -87 17 -114 -60 -191 -206 -207
-132 -14 -278 17 -392 84 l-57 34 -55 -82 -55 -82 22 -19 c34 -28 175 -93 243
-112 86 -24 320 -30 410 -11 146 31 252 106 303 215 24 51 27 69 27 167 0 96
-3 116 -24 158 -54 111 -155 178 -401 268 -217 79 -280 126 -280 209 0 166
259 212 501 90 45 -22 83 -40 84 -38 2 2 26 39 54 83 l51 80 -38 23 c-49 31
-114 60 -187 84 -83 27 -325 35 -405 13z"/>
<path d="M1000 1429 l0 -671 318 5 c258 4 328 8 376 22 194 55 286 160 294
334 7 151 -50 250 -181 315 l-68 34 54 30 c106 60 153 150 145 276 -11 166
-126 276 -326 312 -52 9 -163 13 -344 14 l-268 0 0 -671z m602 453 c62 -31 90
-71 96 -138 7 -82 -23 -135 -96 -171 -54 -26 -66 -28 -214 -31 l-158 -4 0 179
c0 99 3 183 8 187 4 4 77 6 162 4 138 -3 160 -6 202 -26z m-1 -542 c57 -16
102 -51 127 -100 55 -109 0 -231 -122 -270 -25 -8 -102 -13 -205 -14 l-166 -1
-3 198 -2 197 167 0 c93 0 184 -5 204 -10z"/>
<path d="M5380 1430 l0 -670 435 0 435 0 0 100 0 100 -317 2 -318 3 0 190 0
190 257 3 c291 3 262 -8 273 97 3 33 8 68 11 78 5 16 -13 17 -270 17 l-276 0
0 180 0 180 315 0 315 0 0 100 0 100 -430 0 -430 0 0 -670z"/>
<path d="M2770 1685 c-210 -59 -320 -217 -320 -460 0 -210 91 -374 246 -447
58 -27 81 -32 171 -36 186 -8 310 33 404 136 63 69 95 141 110 250 20 142 -9
292 -75 397 -42 65 -85 100 -166 139 -60 28 -74 31 -190 33 -89 2 -141 -2
-180 -12z m246 -174 c95 -43 139 -150 132 -317 -5 -116 -31 -187 -84 -234 -84
-73 -222 -66 -300 15 -60 62 -79 125 -78 255 1 158 36 233 128 276 63 29 144
31 202 5z"/>
</g>
</svg>
