<?xml version="1.0" standalone="no"?>
<!DOCTYPE svg PUBLIC "-//W3C//DTD SVG 20010904//EN"
 "http://www.w3.org/TR/2001/REC-SVG-20010904/DTD/svg10.dtd">
<svg version="1.0" xmlns="http://www.w3.org/2000/svg"
 width="2100.000000pt" height="1201.000000pt" viewBox="0 0 2100.000000 1201.000000"
 preserveAspectRatio="xMidYMid meet">

<g transform="translate(0.000000,1201.000000) scale(0.100000,-0.100000)"
fill="#000000" stroke="none">
<path d="M6050 6875 l0 -145 120 0 120 0 0 -635 0 -635 195 0 195 0 0 635 0
635 125 0 125 0 0 145 0 145 -440 0 -440 0 0 -145z"/>
<path d="M7050 6240 l0 -780 193 2 192 3 5 283 5 283 93 -186 92 -185 0 -100
0 -100 195 0 195 0 0 100 0 100 -95 190 c-52 104 -95 192 -95 194 0 2 18 6 40
10 26 4 54 19 79 41 70 64 71 67 71 403 l0 300 -33 63 c-36 70 -102 128 -167
148 -25 7 -160 11 -404 11 l-366 0 0 -780z m580 295 l0 -195 -95 0 -95 0 0
195 0 195 95 0 95 0 0 -195z"/>
<path d="M8373 7004 c-58 -21 -126 -85 -157 -146 l-26 -52 0 -673 0 -673 193
2 192 3 3 243 2 242 95 0 95 0 0 -245 0 -245 195 0 195 0 0 668 0 667 -24 50
c-34 73 -69 110 -138 144 l-61 31 -261 -1 c-203 0 -270 -4 -303 -15z m397
-519 l0 -245 -95 0 -95 0 0 245 0 245 95 0 95 0 0 -245z"/>
<path d="M9330 6240 l0 -780 195 0 195 0 0 340 0 340 100 0 100 0 0 -340 0
-340 196 0 195 0 -3 418 c-3 457 -2 445 -65 503 -35 33 -65 49 -92 49 -11 0
-22 4 -26 10 -3 5 37 95 90 199 l95 191 0 95 0 95 -195 0 -195 0 0 -95 0 -94
-97 -193 -98 -193 -3 288 -2 287 -195 0 -195 0 0 -780z"/>
<path d="M10480 6240 l0 -780 193 2 192 3 3 243 2 242 170 0 c146 0 177 3 224
20 62 24 125 80 158 142 23 42 23 48 23 373 l0 330 -30 53 c-32 59 -66 91
-129 125 -40 21 -51 22 -423 25 l-383 3 0 -781z m580 245 l0 -245 -95 0 -95 0
0 245 0 245 95 0 95 0 0 -245z"/>
<path d="M11817 7006 c-55 -20 -111 -62 -142 -106 -55 -79 -55 -78 -55 -787
l0 -653 195 0 195 0 0 245 0 245 100 0 100 0 0 -245 0 -245 195 0 196 0 -3
668 -3 667 -24 53 c-29 65 -104 134 -168 156 -63 22 -527 23 -586 2z m391
-518 l-3 -243 -97 -3 -98 -3 0 246 0 245 100 0 100 0 -2 -242z"/>
<path d="M12953 7004 c-59 -21 -127 -86 -158 -147 l-25 -53 2 -570 c3 -543 4
-571 23 -609 26 -54 87 -113 144 -139 43 -20 61 -21 316 -21 264 0 271 1 318
24 60 30 131 108 151 168 12 35 16 88 16 220 l0 173 -195 0 -194 0 -3 -147 -3
-148 -92 -3 -93 -3 0 491 0 490 95 0 95 0 0 -145 0 -145 196 0 196 0 -4 188
c-3 170 -5 191 -25 228 -34 63 -66 97 -125 129 l-53 30 -270 2 c-219 2 -278
-1 -312 -13z"/>
<path d="M13910 6240 l0 -780 195 0 195 0 0 340 0 340 100 0 100 0 0 -340 0
-340 193 2 192 3 0 405 c0 223 -3 417 -8 432 -15 57 -98 128 -147 128 -11 0
-23 6 -26 14 -3 8 38 97 90 199 l96 186 0 95 0 96 -195 0 -195 0 -1 -92 0 -93
-99 -195 -99 -195 0 288 -1 287 -195 0 -195 0 0 -780z"/>
</g>
</svg>
